<svg viewBox="0 0 500 488.7" xmlns="http://www.w3.org/2000/svg" xmlns:xlink="http://www.w3.org/1999/xlink"><linearGradient id="a" gradientUnits="userSpaceOnUse" x1="250" x2="250" y1="-.000013" y2="488.6687"><stop offset="0" stop-color="#246be8"/><stop offset=".9995" stop-color="#3293f2"/></linearGradient><path d="m282.7 0c-11.7 0-22.8 5.2-29.9 14.3-50.7 64.8-81.3 141.4-95.2 217.5-12.1 66.6-6.4 151.3 16.2 229.3 4.7 16.2 12.8 27.5 76.8 27.5 172.6 0 249.3-67.3 249.3-244.5.1-171.7-73.1-244.1-217.2-244.1m-4.6 466.6c-10.5 5.3-23.3 1.2-28.7-9-.1-.2-.1-.3-.2-.5-34.7-66-46.3-140.9-32.8-215.3 13.5-74.5 50.9-141 106.9-191.4.1-.1.3-.3.4-.4 8.8-7.7 22.3-7 30.1 1.6 7.9 8.6 7.1 21.8-1.7 29.4-.1.1-.2.2-.4.3-47.4 42.9-81.3 100.7-93.5 167.7-12.1 66.8-.6 132.3 28.6 188.5l-.1.1c.2.3.4.6.5.9 5.5 10.3 1.3 22.9-9.1 28.1m129.8-312.6c-.2.2-.5.3-.8.5-34.7 27.4-59.8 65-68.5 108.8-8.8 44 .3 87.1 22.5 123.6l-.2.1c.2.3.4.5.6.8 3.6 6.3.9 14-6.2 17.2s-15.7.8-19.4-5.5c-.1-.2-.2-.4-.3-.6-25.2-41.4-35.4-90.2-25.5-140 9.9-49.7 38.4-92.4 78-123.5.3-.2.5-.5.8-.7 6-4.6 15.2-4.1 20.4 1.3 5.3 5.2 4.6 13.3-1.4 18m-331.1 276.4c1.7 8.6-8.9 14.5-15.5 8.5-37.7-34.1-61.3-77.4-61.3-194.7 0-150.8 59.2-215.2 139.8-237.1 8-2.2 14.6 6.4 10.4 13.4-36.6 60.3-62.1 127.3-74.8 197.1-12.8 70.7-12.3 143.1 1.4 212.8z" fill="url(#a)"/></svg>