<svg viewBox="0 0 33 44" xmlns="http://www.w3.org/2000/svg">
    <path  fill="#6e54d7" d="M32.3115 28.0458C31.1976 27.4625 29.9723 28.1401 29.4839 28.6376C29.1926 28.9378 28.8327 29.1693 28.4385 29.3152C28.0444 29.461 27.6245 29.521 27.2047 29.4867C26.7848 29.4524 26.3821 29.3237 26.0137 29.1179C25.6452 28.912 25.3368 28.6204 25.0883 28.2773C25.0283 28.1916 24.9769 28.1058 24.9255 28.0115C28.6956 25.1639 31.1204 20.6352 31.1119 15.5405C31.1033 6.92919 24.0601 -0.0610589 15.4574 -0.00101993C6.90613 0.0590191 0 7.01496 0 15.5834C0 21.1584 2.93039 26.0559 7.32599 28.8091C7.30885 28.9463 7.28314 29.0836 7.24887 29.2208C7.14605 29.6325 6.94898 30.0099 6.68336 30.3358C6.41774 30.6618 6.08357 30.9191 5.69799 31.0992C5.60374 31.1421 5.50948 31.1849 5.40666 31.2193C5.39809 31.2193 5.3981 31.2193 5.38953 31.2278C5.35525 31.2364 5.32955 31.245 5.29527 31.2536C4.90113 31.3651 4.48128 31.3994 4.06999 31.3393C3.38452 31.2364 1.52518 31.1678 1.02821 32.4372C0.574083 33.6037 1.52518 34.4957 2.51054 34.8044C2.69048 34.8645 2.87042 34.9074 3.05892 34.9502C3.19601 34.9931 3.33311 35.0274 3.4702 35.0446C3.80437 35.0961 4.14711 35.1218 4.48984 35.1218C5.12391 35.1218 5.7494 35.0274 6.34919 34.8473C6.35776 34.8473 6.35776 34.8473 6.36632 34.8387C6.37489 34.8387 6.37489 34.8387 6.38346 34.8302C6.46915 34.8044 6.5634 34.7787 6.64908 34.7444C7.47165 34.4614 8.22567 34.0154 8.87687 33.4407C9.02253 33.312 9.15106 33.1748 9.27958 33.0204C9.37383 32.9175 9.45952 32.8232 9.55377 32.7117C9.59661 32.6602 9.63089 32.6087 9.67373 32.5573C9.6823 32.5487 9.6823 32.5401 9.69087 32.5315C9.88794 32.2742 10.0679 32.0083 10.2221 31.7253C10.2221 31.7253 10.2221 31.7167 10.2307 31.7167C10.2907 31.6052 10.462 31.6738 10.4192 31.7939C10.4106 31.8111 10.4106 31.8196 10.402 31.8368C10.0079 33.0547 9.43381 34.204 8.68836 35.2504C8.08001 36.0996 7.3774 36.8715 6.5891 37.5491C5.74083 38.2695 5.4238 39.4875 5.99788 40.4395C6.57197 41.3916 7.81438 41.7003 8.68836 41.0142C9.93935 40.0364 11.0361 38.8785 11.9615 37.5748C13.0068 36.0996 13.8037 34.4614 14.3178 32.7374C14.3606 32.583 14.4206 32.3686 14.472 32.1456C14.5063 31.9912 14.7377 32.0169 14.7377 32.1713C14.7462 32.3686 14.7462 32.5658 14.7462 32.7545C14.7205 34.4699 14.3435 36.1596 13.6409 37.7292C13.2125 38.6812 12.6641 39.5732 12.0215 40.3881C11.3274 41.2543 11.2589 42.5152 12.0043 43.3386C12.7498 44.1619 14.0265 44.2306 14.7548 43.39C15.7916 42.1892 16.6484 40.8426 17.3082 39.3846C18.2421 37.3175 18.7391 35.0875 18.7648 32.8146C18.7648 32.643 18.7648 32.4715 18.7648 32.3C18.7648 32.1799 18.9362 32.1541 18.9704 32.2656C19.0219 32.4543 19.0733 32.6345 19.1075 32.7631C19.3989 34.0325 19.4931 35.3362 19.3817 36.6399C19.296 37.6777 19.0733 38.707 18.7305 39.6848C18.3621 40.7311 18.7134 41.9491 19.6902 42.4723C20.667 42.9955 21.8923 42.6352 22.295 41.606C22.8776 40.1308 23.2375 38.5697 23.3746 36.983C23.4946 35.6193 23.4346 34.2555 23.2204 32.9175C23.1604 32.523 23.0747 32.137 22.989 31.751C22.9633 31.6567 23.0833 31.5795 23.1604 31.6481C23.4689 31.914 23.803 32.1456 24.1543 32.3514C24.994 32.8317 25.928 33.1233 26.8962 33.2005C27.8645 33.2777 28.8327 33.1405 29.7409 32.806C30.6492 32.4629 31.4718 31.9311 32.1487 31.2364C32.3886 30.9877 32.6113 30.7304 32.8084 30.4473C33.4168 29.6325 33.2283 28.5261 32.3115 28.0458ZM10.0593 17.9678C8.99683 18.1136 8.01146 17.376 7.8658 16.3039C7.72013 15.2317 8.45702 14.254 9.52807 14.1081C10.5905 13.9623 11.5759 14.7 11.7216 15.7721C11.8672 16.8356 11.1304 17.822 10.0593 17.9678ZM23.9144 16.038C22.8519 16.1838 21.8666 15.4462 21.7209 14.374C21.5752 13.3105 22.3121 12.3241 23.3832 12.1783C24.4457 12.0325 25.431 12.7701 25.5767 13.8423C25.7224 14.9144 24.9769 15.8922 23.9144 16.038Z"></path>
</svg>