<svg xmlns="http://www.w3.org/2000/svg" xml:space="preserve" width="150" height="150" viewBox="0 0 11.71 11.71" shape-rendering="geometricPrecision" text-rendering="geometricPrecision" image-rendering="optimizeQuality" fill-rule="evenodd" clip-rule="evenodd"><defs><style>.fil0{fill:none}.fil1{fill:#fff;fill-rule:nonzero}</style></defs><g id="Layer_x0020_1"><path class="fil0" d="M0 0h11.71v11.71H0z"/><g id="_2950773339168"><path class="fil1" d="M5.85 3.39c1.49 0 2.86.42 3.86 1.09 1.1.73 1.79 1.78 1.79 2.97s-.69 2.24-1.79 2.98c-1 .67-2.37 1.08-3.86 1.08s-2.86-.41-3.86-1.08C.89 9.69.21 8.64.21 7.45s.68-2.24 1.78-2.97c1-.67 2.37-1.09 3.86-1.09M8.76 5.9c-.73-.49-1.76-.79-2.91-.79s-2.17.3-2.9.79c-.63.42-1.02.97-1.02 1.55S2.32 8.58 2.95 9c.73.49 1.75.79 2.9.79s2.18-.3 2.91-.79c.63-.42 1.02-.97 1.02-1.55S9.39 6.32 8.76 5.9"/><path class="fil1" d="M1.95 7.2C1.4 6.82.96 6.37.65 5.85c.31-.51.75-.97 1.3-1.35.1.49.46.94 1 1.3.02.02.05.04.07.05-.02.02-.05.04-.07.05-.54.36-.9.81-1 1.3"/><path class="fil1" d="M5.85.19c1.49 0 2.86.42 3.86 1.09 1.1.74 1.79 1.79 1.79 2.97 0 1.19-.69 2.24-1.79 2.98-1 .67-2.37 1.08-3.86 1.08S2.99 7.9 1.99 7.23C.89 6.49.21 5.44.21 4.25c0-1.18.68-2.23 1.78-2.97C2.99.61 4.36.19 5.85.19M8.76 2.7c-.73-.48-1.76-.78-2.91-.78s-2.17.3-2.9.78c-.63.42-1.02.97-1.02 1.55s.39 1.13 1.02 1.55c.73.49 1.75.79 2.9.79s2.18-.3 2.91-.79c.63-.42 1.02-.97 1.02-1.55S9.39 3.12 8.76 2.7"/></g></g></svg>