<?xml version="1.0" encoding="UTF-8"?>
<!DOCTYPE svg PUBLIC "-//W3C//DTD SVG 1.1//EN" "http://www.w3.org/Graphics/SVG/1.1/DTD/svg11.dtd">
<!-- Creator: CorelDRAW 2020 (64-Bit) -->
<svg xmlns="http://www.w3.org/2000/svg" xml:space="preserve" width="141px" height="34px" version="1.1" style="shape-rendering:geometricPrecision; text-rendering:geometricPrecision; image-rendering:optimizeQuality; fill-rule:evenodd; clip-rule:evenodd"
viewBox="0 0 32.23 7.77"
 xmlns:xlink="http://www.w3.org/1999/xlink"
 xmlns:xodm="http://www.corel.com/coreldraw/odm/2003">
 <defs>
  <style type="text/css">
   <![CDATA[
    .fil0 {fill:none}
    .fil1 {fill:white;fill-rule:nonzero}
   ]]>
  </style>
 </defs>
 <g id="Layer_x0020_1">
  <metadata id="CorelCorpID_0Corel-Layer"/>
  <rect class="fil0" width="32.23" height="7.77"/>
  <g id="_2950050683280">
   <g>
    <g>
     <path class="fil1" d="M4.04 2.29c0.97,0 1.86,0.27 2.51,0.7 0.72,0.48 1.16,1.16 1.16,1.94 0,0.77 -0.44,1.45 -1.16,1.93 -0.65,0.43 -1.54,0.7 -2.51,0.7 -0.97,0 -1.86,-0.27 -2.51,-0.7 -0.71,-0.48 -1.16,-1.16 -1.16,-1.93 0,-0.78 0.45,-1.46 1.16,-1.94 0.65,-0.43 1.54,-0.7 2.51,-0.7zm1.89 1.63c-0.47,-0.32 -1.14,-0.51 -1.89,-0.51 -0.75,0 -1.41,0.19 -1.89,0.51 -0.41,0.27 -0.66,0.63 -0.66,1.01 0,0.37 0.25,0.73 0.66,1 0.48,0.32 1.14,0.51 1.89,0.51 0.75,0 1.42,-0.19 1.89,-0.51 0.41,-0.27 0.66,-0.63 0.66,-1 0,-0.38 -0.25,-0.74 -0.66,-1.01z"/>
     <path class="fil1" d="M1.51 4.76c-0.36,-0.24 -0.65,-0.54 -0.85,-0.87 0.2,-0.34 0.49,-0.63 0.85,-0.88 0.06,0.32 0.29,0.61 0.64,0.84 0.02,0.01 0.04,0.03 0.05,0.04 -0.01,0.01 -0.03,0.02 -0.05,0.03 -0.35,0.23 -0.58,0.53 -0.64,0.84z"/>
     <path class="fil1" d="M4.04 0.21c0.97,0 1.86,0.27 2.51,0.7 0.72,0.48 1.16,1.17 1.16,1.94 0,0.77 -0.44,1.45 -1.16,1.93 -0.65,0.43 -1.54,0.7 -2.51,0.7 -0.97,0 -1.86,-0.27 -2.51,-0.7 -0.71,-0.48 -1.16,-1.16 -1.16,-1.93 0,-0.77 0.45,-1.46 1.16,-1.94 0.65,-0.43 1.54,-0.7 2.51,-0.7zm1.89 1.63c-0.47,-0.32 -1.14,-0.51 -1.89,-0.51 -0.75,0 -1.41,0.19 -1.89,0.51 -0.41,0.27 -0.66,0.63 -0.66,1.01 0,0.37 0.25,0.73 0.66,1 0.48,0.32 1.14,0.52 1.89,0.52 0.75,0 1.42,-0.2 1.89,-0.52 0.41,-0.27 0.66,-0.63 0.66,-1 0,-0.38 -0.25,-0.74 -0.66,-1.01z"/>
    </g>
    <path class="fil1" d="M5.99 2.68c0.2,0.09 0.39,0.2 0.56,0.31 0.72,0.48 1.16,1.16 1.16,1.94 0,0.1 -0.01,0.21 -0.03,0.31l-1.24 0.19c0.1,-0.16 0.15,-0.33 0.15,-0.5 0,-0.38 -0.25,-0.74 -0.66,-1.01 -0.2,-0.13 -0.42,-0.24 -0.68,-0.33l0.74 -0.91z"/>
   </g>
   <g>
    <path class="fil1" d="M9.86 3.92l-0.52 0 0 -0.92 0.52 0 0 -0.21c0,-0.25 0.04,-0.46 0.12,-0.62 0.07,-0.17 0.17,-0.3 0.3,-0.4 0.13,-0.1 0.27,-0.16 0.43,-0.2 0.15,-0.04 0.31,-0.06 0.48,-0.06l2.17 0 0 0.92 -1.41 0 -0.49 0c0,0 -0.48,-0.03 -0.48,0.4l0 0.17 1.32 0 0 0.92 -1.32 0c0,0.78 0,1.57 0,2.35l-1.12 0c0,-0.78 0,-1.57 0,-2.35z"/>
    <path class="fil1" d="M15.96 3.51c0.08,-0.13 0.18,-0.23 0.31,-0.3 0.13,-0.08 0.28,-0.13 0.44,-0.16 0.16,-0.04 0.33,-0.05 0.5,-0.05 0.01,0 0.02,0 0.03,0l1.43 0 0 0.8 -1.28 0c-0.12,0 -0.39,-0.02 -0.39,0.15 0,0.08 0.04,0.13 0.12,0.17 0.08,0.04 0.19,0.08 0.31,0.11 0.12,0.04 0.26,0.08 0.4,0.12 0.15,0.04 0.28,0.1 0.41,0.17 0.12,0.08 0.22,0.17 0.3,0.29 0.17,0.25 0.16,0.69 0,0.94 -0.08,0.13 -0.2,0.23 -0.33,0.31 -0.14,0.07 -0.3,0.13 -0.49,0.16 -0.19,0.03 -0.38,0.05 -0.58,0.05l-1.3 0 0 -0.82 1.19 0c0.03,0 0.06,0 0.09,0 0.26,-0.01 0.39,-0.06 0.39,-0.16 0,-0.07 -0.04,-0.12 -0.12,-0.16 -0.08,-0.04 -0.19,-0.07 -0.31,-0.11 -0.12,-0.04 -0.26,-0.08 -0.4,-0.12 -0.15,-0.04 -0.28,-0.1 -0.41,-0.17 -0.12,-0.08 -0.22,-0.18 -0.3,-0.3 -0.17,-0.24 -0.16,-0.67 -0.01,-0.92z"/>
    <path class="fil1" d="M18.88 4.64c0,-0.3 0.05,-0.56 0.16,-0.77 0.11,-0.2 0.25,-0.37 0.41,-0.5 0.7,-0.54 1.95,-0.51 2.46,0.26 0.13,0.19 0.2,0.4 0.23,0.63 0,0.07 0.01,0.14 0.01,0.2l0 0.5c-0.71,0 -1.42,0 -2.13,0 0.14,0.4 0.67,0.47 1.03,0.47l1.1 0 0 0.84 -1.38 0c-0.71,0 -1.41,-0.26 -1.74,-0.93 -0.1,-0.21 -0.15,-0.44 -0.15,-0.7zm2.13 -0.63c-0.02,-0.04 -0.05,-0.07 -0.09,-0.09 -0.2,-0.15 -0.53,-0.15 -0.73,0 -0.04,0.02 -0.07,0.05 -0.09,0.09 -0.06,0.07 -0.1,0.17 -0.1,0.3l0.04 0 1.03 0 0.04 0c0,-0.13 -0.04,-0.23 -0.1,-0.3z"/>
    <path class="fil1" d="M15.51 3l0 1.94c0,1.8 -3.27,1.74 -3.27,0l0 -1.94 1.12 0 0 1.92c0,0.7 1.02,0.7 1.02,0.01l0 -1.93 1.13 0z"/>
    <path class="fil1" d="M27.67 1.51l-1.06 4.76 -0.66 0 -1.04 -3.54 -0.1 0 -1.03 3.54 -0.67 0 -1.06 -4.76c0.27,0 0.54,0 0.82,0l0.68 3.39 0.97 -3.39c0.23,0 0.47,0 0.71,0l0.96 3.39 0.66 -3.39c0.28,0 0.55,0 0.82,0z"/>
    <path class="fil1" d="M29.97 1.51c0.6,0 1.07,0.13 1.4,0.4 0.32,0.26 0.49,0.64 0.49,1.11 0,0.49 -0.17,0.87 -0.51,1.15 -0.34,0.28 -0.8,0.42 -1.39,0.42l-1.23 0 0 1.68 -0.74 0 0 -4.76 1.98 0zm-0.05 2.46c0.38,0 0.67,-0.08 0.87,-0.24 0.19,-0.16 0.29,-0.39 0.29,-0.69 0,-0.3 -0.1,-0.53 -0.29,-0.68 -0.2,-0.16 -0.49,-0.24 -0.87,-0.24l-1.19 0 0 1.85 1.19 0z"/>
   </g>
  </g>
 </g>
</svg>
