<svg viewBox="0 0 28 26" fill="none" xmlns="http://www.w3.org/2000/svg">
   <path d="M105.299 4.84769C106.384 4.84769 107.265 3.96751 107.265 2.88172C107.265 1.79594 106.384 0.915733 105.299 0.915733C104.213 0.915733 103.333 1.79594 103.333 2.88172C103.333 3.96751 104.213 4.84769 105.299 4.84769Z" fill="#1E2423"/>
    <path d="M19.7111 1.24912H4.13049C3.58837 1.24828 3.0514 1.35432 2.55031 1.5612C2.04921 1.76808 1.59382 2.07173 1.21018 2.45477C0.826547 2.83781 0.52219 3.29273 0.314535 3.7935C0.10688 4.29428 -6.53572e-07 4.83108 0 5.37321V20.9538C-6.53572e-07 21.4959 0.10688 22.0327 0.314535 22.5335C0.52219 23.0343 0.826547 23.4892 1.21018 23.8722C1.59382 24.2553 2.04921 24.5589 2.55031 24.7658C3.0514 24.9727 3.58837 25.0787 4.13049 25.0779H11.226V21.6646C11.226 18.373 10.8161 15.8499 8.36985 15.1199V12.4239C12.3466 12.7825 14.319 15.741 14.319 20.6016V25.0843H19.7111C20.8049 25.0843 21.8538 24.6498 22.6272 23.8764C23.4007 23.1029 23.8352 22.054 23.8352 20.9602V5.37321C23.8352 4.27943 23.4007 3.23045 22.6272 2.45703C21.8538 1.68362 20.8049 1.24912 19.7111 1.24912ZM12.0264 9.85591C11.574 9.85717 11.1314 9.72418 10.7546 9.47374C10.3778 9.2233 10.0837 8.86669 9.90973 8.44906C9.73571 8.03143 9.68953 7.57156 9.77701 7.12766C9.8645 6.68376 10.0817 6.2758 10.4012 5.95543C10.7207 5.63506 11.128 5.4167 11.5717 5.32796C12.0153 5.23923 12.4753 5.28412 12.8934 5.45697C13.3116 5.62981 13.669 5.92284 13.9205 6.29894C14.172 6.67504 14.3062 7.11729 14.3062 7.56972C14.3062 8.17495 14.0662 8.75548 13.6389 9.18404C13.2115 9.61259 12.6317 9.85421 12.0264 9.85591Z" fill="#1E2423"/>
</svg>