<svg version="1.1" xmlns="http://www.w3.org/2000/svg" xmlns:xlink="http://www.w3.org/1999/xlink" x="0px" y="0px" viewBox="0 0 210.5 65" style="enable-background:new 0 0 210.5 65;" xml:space="preserve">
 <g>
  <path class="st0" fill="#191D2A" d="M40.3,38.7c0,3.7-1.5,7.2-4.1,9.8c-2.6,2.6-6.2,4.1-9.8,4.1c-3.7,0-7.2-1.5-9.9-4.1c-2.6-2.6-4.1-6.2-4.1-9.9
		c0-3.7,1.5-7.2,4.1-9.8c2.6-2.6,6.2-4.1,9.8-4.1c3.7,0,7.2,1.5,9.9,4.1C38.8,31.4,40.2,35,40.3,38.7L40.3,38.7z M52.6,38.7
		c0-7-2.8-13.7-7.7-18.6c-4.9-4.9-11.6-7.7-18.6-7.7c-7,0-13.7,2.8-18.6,7.7C2.8,25,0,31.7,0,38.7c0,7,2.8,13.7,7.7,18.6
		c4.9,4.9,11.6,7.7,18.6,7.7c7,0,13.7-2.8,18.6-7.7C49.9,52.3,52.6,45.7,52.6,38.7L52.6,38.7z M70,24.9h17.1v-12H76.7
		c-12,0-20.3,8.3-20.3,20.3v31.3h12.8V25.7c0-0.2,0.1-0.4,0.2-0.6C69.5,25,69.8,24.9,70,24.9L70,24.9z M145.6,64.5H156v-12h-17.1
		c-0.2,0-0.4-0.1-0.6-0.2c-0.2-0.2-0.2-0.4-0.2-0.6V24.9H156v-12h-18V0h-12.8v12.9h-21.5V0H91v44.2c0,12,8.3,20.3,20.3,20.3h10.4
		v-12h-17.1c-0.2,0-0.4-0.1-0.6-0.2c-0.2-0.2-0.2-0.4-0.2-0.6V24.9h21.5l0,19.3C125.3,56.2,133.6,64.5,145.6,64.5L145.6,64.5z
		 M198.2,38.7c0,2.8-0.8,5.5-2.3,7.7c-1.5,2.3-3.7,4.1-6.3,5.1c-2.5,1.1-5.3,1.3-8.1,0.8c-2.7-0.5-5.2-1.9-7.1-3.8
		c-1.9-1.9-3.3-4.4-3.8-7.1c-0.5-2.7-0.3-5.5,0.8-8.1c1.1-2.5,2.8-4.7,5.1-6.3c2.3-1.5,5-2.3,7.7-2.3c3.7,0,7.2,1.5,9.8,4.1
		C196.7,31.4,198.2,35,198.2,38.7L198.2,38.7z M210.5,38.7c0-5.2-1.5-10.3-4.4-14.6c-2.9-4.3-7-7.7-11.8-9.7
		c-4.8-2-10.1-2.5-15.2-1.5c-5.1,1-9.8,3.5-13.5,7.2c-3.7,3.7-6.2,8.4-7.2,13.5c-1,5.1-0.5,10.4,1.5,15.2c2,4.8,5.4,8.9,9.7,11.8
		c4.3,2.9,9.4,4.4,14.6,4.4c7,0,13.7-2.8,18.6-7.7C207.8,52.3,210.5,45.7,210.5,38.7">
  </path>
 </g>
</svg>